<svg width="37" height="36" viewBox="0 0 37 36" fill="none" xmlns="http://www.w3.org/2000/svg">
<g clip-path="url(#clip0_48_146)">
<path d="M33.7 39L21.1 26.4C20.1 27.2 18.95 27.8333 17.65 28.3C16.35 28.7667 14.9667 29 13.5 29C9.86667 29 6.792 27.7413 4.276 25.224C1.76 22.7067 0.501333 19.632 0.5 16C0.5 12.3667 1.75867 9.292 4.276 6.776C6.79333 4.26 9.868 3.00133 13.5 3C17.1333 3 20.208 4.25867 22.724 6.776C25.24 9.29333 26.4987 12.368 26.5 16C26.5 17.4667 26.2667 18.85 25.8 20.15C25.3333 21.45 24.7 22.6 23.9 23.6L36.5 36.2L33.7 39ZM13.5 25C16 25 18.1253 24.1247 19.876 22.374C21.6267 20.6233 22.5013 18.4987 22.5 16C22.5 13.5 21.6247 11.3747 19.874 9.624C18.1233 7.87333 15.9987 6.99867 13.5 7C11 7 8.87467 7.87533 7.124 9.626C5.37333 11.3767 4.49867 13.5013 4.5 16C4.5 18.5 5.37533 20.6253 7.126 22.376C8.87667 24.1267 11.0013 25.0013 13.5 25Z" fill="black"/>
</g>
<defs>
<clipPath id="clip0_48_146">
<rect width="36" height="36" fill="white" transform="translate(0.5)"/>
</clipPath>
</defs>
</svg>
