<svg width="36" height="36" viewBox="0 0 36 36" fill="none" xmlns="http://www.w3.org/2000/svg">
<g clip-path="url(#clip0_126_269)">
<path d="M33.2 39L20.6 26.4C19.6 27.2 18.45 27.8333 17.15 28.3C15.85 28.7667 14.4667 29 13 29C9.36667 29 6.292 27.7413 3.776 25.224C1.26 22.7067 0.00133333 19.632 0 16C0 12.3667 1.25867 9.292 3.776 6.776C6.29333 4.26 9.368 3.00133 13 3C16.6333 3 19.708 4.25867 22.224 6.776C24.74 9.29333 25.9987 12.368 26 16C26 17.4667 25.7667 18.85 25.3 20.15C24.8333 21.45 24.2 22.6 23.4 23.6L36 36.2L33.2 39ZM13 25C15.5 25 17.6253 24.1247 19.376 22.374C21.1267 20.6233 22.0013 18.4987 22 16C22 13.5 21.1247 11.3747 19.374 9.624C17.6233 7.87333 15.4987 6.99867 13 7C10.5 7 8.37467 7.87533 6.624 9.626C4.87333 11.3767 3.99867 13.5013 4 16C4 18.5 4.87533 20.6253 6.626 22.376C8.37667 24.1267 10.5013 25.0013 13 25Z" fill="black"/>
</g>
<defs>
<clipPath id="clip0_126_269">
<rect width="36" height="36" fill="white"/>
</clipPath>
</defs>
</svg>
