<svg width="37" height="36" viewBox="0 0 37 36" fill="none" xmlns="http://www.w3.org/2000/svg">
<path d="M32 6.75H5C4.70163 6.75 4.41548 6.86853 4.2045 7.07951C3.99353 7.29048 3.875 7.57663 3.875 7.875V27C3.875 27.5967 4.11205 28.169 4.53401 28.591C4.95597 29.0129 5.52826 29.25 6.125 29.25H30.875C31.4717 29.25 32.044 29.0129 32.466 28.591C32.8879 28.169 33.125 27.5967 33.125 27V7.875C33.125 7.57663 33.0065 7.29048 32.7955 7.07951C32.5845 6.86853 32.2984 6.75 32 6.75ZM6.125 15.75H11.75V20.25H6.125V15.75ZM14 15.75H30.875V20.25H14V15.75ZM6.125 22.5H11.75V27H6.125V22.5ZM30.875 27H14V22.5H30.875V27Z" fill="black"/>
</svg>
