<svg width="37" height="37" viewBox="0 0 37 37" fill="none" xmlns="http://www.w3.org/2000/svg">
<path d="M14 27.5H22.25C22.675 27.5 23.069 27.3935 23.432 27.1805C23.795 26.9675 24.051 26.674 24.2 26.3L27.35 18.95C27.4 18.825 27.4375 18.7 27.4625 18.575C27.4875 18.45 27.5 18.325 27.5 18.2V17C27.5 16.575 27.356 16.2185 27.068 15.9305C26.78 15.6425 26.424 15.499 26 15.5H19.1L20 10.4C20.05 10.15 20.0375 9.9125 19.9625 9.6875C19.8875 9.4625 19.7625 9.2625 19.5875 9.0875L18.5 8L11.6 15.5C11.4 15.7 11.25 15.925 11.15 16.175C11.05 16.425 11 16.7 11 17V24.5C11 25.325 11.294 26.0315 11.882 26.6195C12.47 27.2075 13.176 27.501 14 27.5ZM18.5 33.5C16.425 33.5 14.475 33.106 12.65 32.318C10.825 31.53 9.2375 30.4615 7.8875 29.1125C6.5375 27.7625 5.469 26.175 4.682 24.35C3.895 22.525 3.501 20.575 3.5 18.5C3.5 16.425 3.894 14.475 4.682 12.65C5.47 10.825 6.5385 9.2375 7.8875 7.8875C9.2375 6.5375 10.825 5.469 12.65 4.682C14.475 3.895 16.425 3.501 18.5 3.5C20.575 3.5 22.525 3.894 24.35 4.682C26.175 5.47 27.7625 6.5385 29.1125 7.8875C30.4625 9.2375 31.5315 10.825 32.3195 12.65C33.1075 14.475 33.501 16.425 33.5 18.5C33.5 20.575 33.106 22.525 32.318 24.35C31.53 26.175 30.4615 27.7625 29.1125 29.1125C27.7625 30.4625 26.175 31.5315 24.35 32.3195C22.525 33.1075 20.575 33.501 18.5 33.5Z" fill="black"/>
</svg>
